<svg width="144" height="143" viewBox="0 0 144 143" fill="none" xmlns="http://www.w3.org/2000/svg">
<g clip-path="url(#clip0_126_46)">
<path d="M4.03824 70.9051L1.48959 70.7034L2.30328 60.5764L4.85193 60.7781L4.56949 64.2815L13.6747 65.0145L13.4259 68.1346L4.32068 67.4017L4.03824 70.9051Z" fill="#231F20"/>
<path d="M14.4279 58.9423L3.25146 55.5061L4.18619 52.4734L8.5505 53.8183L9.78111 49.8038L5.41681 48.4589L6.35154 45.4262L17.5279 48.8624L16.5932 51.8951L12.2289 50.5502L10.9916 54.5647L15.3559 55.9096L14.4211 58.9423H14.4279Z" fill="#231F20"/>
<path d="M18.7518 46.26L8.5303 40.5913L12.6189 33.2213L14.8515 34.4586L12.3028 39.0514L14.058 40.0265L16.3982 35.817L18.6375 37.0543L16.304 41.2638L18.0592 42.2388L20.5944 37.6662L22.8337 38.9035L18.7585 46.2533L18.7518 46.26Z" fill="#231F20"/>
<path d="M26.6062 33.6853L18.1466 25.616L21.63 21.9646C22.2284 21.3393 22.874 20.9022 23.5734 20.6735C24.2727 20.4382 24.9654 20.4046 25.6648 20.5727C26.3641 20.7408 27.0097 21.1106 27.6149 21.6822C28.2201 22.2605 28.6169 22.8926 28.8052 23.5852C28.9935 24.2778 28.9733 24.9772 28.7514 25.69C28.5295 26.4028 28.1125 27.0819 27.4939 27.7275L25.4159 29.9062L23.6339 28.2049L25.2747 26.4902C25.5303 26.2212 25.7051 25.9455 25.7925 25.6631C25.8799 25.3806 25.8867 25.1049 25.806 24.836C25.7253 24.567 25.5706 24.3182 25.3285 24.0896C25.0864 23.8609 24.8309 23.713 24.5619 23.6525C24.2929 23.5919 24.0172 23.6121 23.7415 23.7197C23.4658 23.8206 23.2035 24.0089 22.9413 24.2778L22.1679 25.0848L28.7917 31.4057L26.5995 33.7055L26.6062 33.6853Z" fill="#231F20"/>
<path d="M35.0188 25.2058L28.4824 15.5159L31.1117 13.7406L33.6671 17.5265L37.1505 15.1797L34.5951 11.3938L37.2245 9.61856L43.7608 19.3085L41.1315 21.0837L38.5761 17.2979L35.0927 19.6447L37.6481 23.4306L35.0188 25.2058Z" fill="#231F20"/>
<path d="M44.0365 6.39082L48.9724 16.9885L46.0943 18.3267L41.1584 7.72899L44.0365 6.39082Z" fill="#231F20"/>
<path d="M51.0975 16L47.5737 4.85093L50.5998 3.89606L53.3502 12.6042L57.8557 11.1786L58.6291 13.6196L51.0975 16Z" fill="#231F20"/>
<path d="M64.1971 12.6378L60.7877 12.9673L63.491 0.964213L67.8082 0.540573L72.7845 11.804L69.3751 12.1335L66.006 3.94986H65.9186L64.1971 12.6378ZM63.1144 8.11229L69.523 7.48692L69.7517 9.8472L63.3431 10.4726L63.1144 8.11229Z" fill="#231F20"/>
<path d="M79.8992 12.5706L75.4407 11.9587L77.0345 0.379181L81.4459 0.98438C82.6361 1.14577 83.6381 1.52234 84.4451 2.10064C85.252 2.67894 85.8303 3.4388 86.1867 4.36677C86.5432 5.29475 86.6373 6.36393 86.4692 7.57433C86.3011 8.78473 85.9245 9.78667 85.3327 10.5869C84.7409 11.3871 83.9811 11.9587 83.0598 12.3016C82.1318 12.6446 81.0827 12.732 79.9059 12.5706H79.8992ZM78.9577 9.71943L80.1547 9.88754C80.7263 9.96823 81.2307 9.94133 81.6611 9.81357C82.0914 9.68581 82.4478 9.4101 82.7168 8.98646C82.9925 8.56282 83.1875 7.9509 83.2951 7.14397C83.4027 6.33703 83.3826 5.69149 83.2279 5.20733C83.0732 4.72317 82.7975 4.36005 82.4075 4.11797C82.0175 3.87589 81.5198 3.7145 80.9146 3.62709L79.805 3.47242L78.9443 9.7127L78.9577 9.71943Z" fill="#231F20"/>
<path d="M88.3521 14.1239L92.2726 3.1093L100.208 5.94029L99.3469 8.34764L94.3976 6.58583L93.7251 8.4754L98.2642 10.0893L97.4035 12.4966L92.8643 10.8828L92.1919 12.7723L97.1143 14.5274L96.2536 16.9347L88.3386 14.1172L88.3521 14.1239Z" fill="#231F20"/>
<path d="M98.7753 18.1317L104.619 8.0047L107.369 9.59167L102.803 17.4996L106.899 19.8599L105.621 22.0722L98.7753 18.125V18.1317Z" fill="#231F20"/>
<path d="M107.665 23.4776L115.284 14.6148L119.111 17.9031C119.77 18.4679 120.234 19.0933 120.503 19.7792C120.772 20.4651 120.846 21.1577 120.711 21.8638C120.583 22.5698 120.247 23.2356 119.702 23.8677C119.158 24.4998 118.546 24.9301 117.86 25.152C117.181 25.3739 116.481 25.3941 115.755 25.2125C115.036 25.031 114.336 24.6477 113.657 24.0627L111.371 22.0991L112.978 20.2297L114.78 21.7764C115.062 22.0184 115.345 22.1798 115.634 22.2471C115.923 22.321 116.199 22.3076 116.461 22.2202C116.73 22.126 116.966 21.9579 117.187 21.7091C117.409 21.4536 117.537 21.1913 117.584 20.9156C117.631 20.6399 117.598 20.3709 117.477 20.102C117.356 19.833 117.161 19.5775 116.878 19.3354L116.031 18.6091L110.066 25.5555L107.659 23.4844L107.665 23.4776Z" fill="#231F20"/>
<path d="M116.582 31.4528L125.923 24.4258L127.833 26.9609L124.181 29.7045L126.71 33.06L130.361 30.3164L132.271 32.8515L122.93 39.8785L121.021 37.3434L124.672 34.5999L122.15 31.2444L118.499 33.9879L116.589 31.4528H116.582Z" fill="#231F20"/>
<path d="M135.848 39.5087L125.513 44.9689L124.026 42.1648L134.362 36.7046L135.848 39.5087Z" fill="#231F20"/>
<path d="M127.792 50.0728L126.703 46.8249L139.016 46.7711L140.394 50.8864L130.536 58.2564L129.447 55.0085L136.669 49.898L136.642 49.8105L127.799 50.0728H127.792ZM131.962 48.0017L134.006 54.1075L131.753 54.8606L129.709 48.7548L131.962 48.0017Z" fill="#231F20"/>
<path d="M131.625 68.9147L131.498 64.416L143.185 64.0798L143.313 68.5314C143.346 69.7351 143.145 70.7773 142.701 71.6717C142.257 72.5593 141.611 73.2587 140.751 73.763C139.89 74.2673 138.854 74.5363 137.637 74.5699C136.42 74.6036 135.371 74.3951 134.483 73.9446C133.596 73.494 132.91 72.8417 132.419 71.981C131.928 71.1203 131.666 70.0982 131.632 68.9147H131.625ZM134.282 67.516L134.315 68.7264C134.329 69.3047 134.436 69.7956 134.638 70.199C134.833 70.6025 135.169 70.9051 135.626 71.1068C136.09 71.3086 136.729 71.396 137.543 71.3758C138.357 71.3556 138.989 71.2212 139.439 70.9925C139.89 70.7639 140.199 70.4344 140.374 70.004C140.549 69.5804 140.63 69.0626 140.609 68.4507L140.576 67.3344L134.275 67.516H134.282Z" fill="#231F20"/>
<path d="M131.484 77.5152L142.99 79.5864L141.497 87.8776L138.982 87.4271L139.91 82.256L137.933 81.8996L137.079 86.6403L134.564 86.1898L135.418 81.449L133.441 81.0926L132.513 86.2368L129.998 85.7863L131.484 77.5152Z" fill="#231F20"/>
<path d="M134.436 97.3591C134.799 97.4667 135.129 97.4465 135.418 97.2851C135.707 97.1237 135.949 96.8077 136.138 96.3302C136.259 96.0276 136.319 95.7654 136.319 95.5435C136.319 95.3216 136.279 95.14 136.191 94.9988C136.104 94.8576 135.983 94.7567 135.822 94.6895C135.694 94.6289 135.566 94.6088 135.438 94.6222C135.31 94.6357 135.183 94.6895 135.055 94.7769C134.927 94.8643 134.786 94.9921 134.645 95.1534C134.503 95.3148 134.356 95.5166 134.201 95.7519L133.663 96.5723C133.3 97.1237 132.93 97.5742 132.553 97.9239C132.177 98.2736 131.793 98.5224 131.403 98.6905C131.013 98.8519 130.617 98.9326 130.22 98.9191C129.816 98.9124 129.413 98.825 128.996 98.6703C128.283 98.3879 127.745 97.971 127.389 97.4196C127.032 96.8682 126.851 96.2159 126.851 95.456C126.851 94.6962 127.032 93.8556 127.389 92.9344C127.759 91.9862 128.223 91.2197 128.781 90.6279C129.339 90.0362 129.984 89.6596 130.717 89.4982C131.45 89.3368 132.278 89.4377 133.185 89.7873L132.089 92.5914C131.746 92.4771 131.437 92.4502 131.155 92.5107C130.872 92.5713 130.617 92.7125 130.395 92.9411C130.173 93.163 129.984 93.4656 129.837 93.8422C129.716 94.1582 129.648 94.4339 129.642 94.6827C129.642 94.9248 129.682 95.1265 129.776 95.2947C129.87 95.456 130.005 95.5771 130.18 95.651C130.348 95.7116 130.516 95.7183 130.684 95.6578C130.852 95.604 131.034 95.4762 131.222 95.2812C131.417 95.0862 131.639 94.7971 131.881 94.4272L132.54 93.432C133.125 92.5511 133.77 91.9257 134.483 91.5693C135.189 91.2062 135.969 91.1928 136.817 91.529C137.509 91.798 138.041 92.2149 138.417 92.7932C138.787 93.3715 138.989 94.0506 139.022 94.8239C139.056 95.5973 138.901 96.4244 138.558 97.2851C138.215 98.166 137.772 98.8653 137.227 99.3898C136.682 99.9144 136.07 100.251 135.405 100.392C134.732 100.533 134.039 100.466 133.327 100.19L134.436 97.3658V97.3591Z" fill="#231F20"/>
<path d="M133.219 107.789L123.065 101.992L124.638 99.2352L134.793 105.032L133.219 107.789Z" fill="#231F20"/>
<path d="M123.199 115.098C123.388 115.186 123.576 115.239 123.757 115.253C123.946 115.266 124.127 115.253 124.316 115.192C124.497 115.138 124.679 115.044 124.854 114.923C125.028 114.802 125.19 114.634 125.344 114.446C125.681 114.029 125.869 113.599 125.903 113.148C125.943 112.697 125.835 112.247 125.587 111.79C125.338 111.332 124.948 110.895 124.423 110.472C123.892 110.041 123.381 109.745 122.883 109.584C122.386 109.423 121.922 109.403 121.491 109.53C121.061 109.651 120.671 109.927 120.321 110.357C120.019 110.734 119.817 111.09 119.723 111.427C119.629 111.763 119.635 112.079 119.736 112.368C119.837 112.657 120.025 112.906 120.294 113.128L119.904 113.518L121.585 111.44L123.341 112.866L120.079 116.894L118.822 115.871C117.994 115.199 117.43 114.453 117.127 113.625C116.824 112.798 116.764 111.951 116.952 111.09C117.14 110.223 117.551 109.396 118.189 108.602C118.909 107.715 119.723 107.096 120.637 106.726C121.552 106.356 122.513 106.276 123.509 106.464C124.504 106.652 125.486 107.136 126.441 107.91C127.194 108.515 127.765 109.174 128.155 109.873C128.552 110.573 128.781 111.285 128.855 112.018C128.922 112.751 128.848 113.471 128.619 114.17C128.391 114.869 128.028 115.528 127.537 116.14C127.1 116.678 126.615 117.115 126.091 117.458C125.566 117.795 125.015 118.03 124.45 118.164C123.885 118.292 123.32 118.312 122.762 118.225C122.204 118.138 121.68 117.929 121.182 117.606L123.199 115.112V115.098Z" fill="#231F20"/>
<path d="M112.043 130.262L104.868 121.036L106.959 119.408L114.067 121.661L114.121 121.621L110.348 116.773L112.857 114.822L120.032 124.048L117.907 125.703L110.873 123.423L110.799 123.477L114.558 128.305L112.057 130.255L112.043 130.262Z" fill="#231F20"/>
<path d="M91.6942 135.117L94.6935 133.94C94.8145 134.182 94.9557 134.384 95.1238 134.552C95.2919 134.72 95.487 134.841 95.7022 134.928C95.9173 135.016 96.1527 135.05 96.4082 135.043C96.6638 135.036 96.9328 134.976 97.2152 134.861C97.7128 134.666 98.0827 134.384 98.3315 134.007C98.5803 133.631 98.7013 133.187 98.7013 132.669C98.7013 132.151 98.5736 131.573 98.3248 130.948C98.0625 130.282 97.7532 129.757 97.3968 129.381C97.0404 129.004 96.6503 128.769 96.2199 128.675C95.7896 128.587 95.339 128.634 94.8616 128.823C94.5859 128.93 94.3572 129.058 94.1689 129.213C93.9806 129.367 93.8327 129.542 93.7251 129.737C93.6175 129.932 93.5503 130.141 93.5234 130.369C93.4965 130.591 93.5099 130.833 93.5637 131.075L90.5578 132.232C90.4098 131.755 90.356 131.237 90.3964 130.672C90.43 130.107 90.578 129.542 90.8268 128.984C91.0756 128.426 91.4589 127.901 91.9632 127.417C92.4676 126.94 93.1199 126.536 93.9201 126.227C94.9154 125.837 95.8972 125.696 96.8588 125.817C97.8204 125.931 98.6946 126.321 99.4747 126.967C100.261 127.619 100.894 128.547 101.364 129.751C101.842 130.961 102.01 132.077 101.869 133.086C101.727 134.101 101.344 134.976 100.719 135.715C100.093 136.455 99.2931 137.013 98.3113 137.403C97.6254 137.672 96.9529 137.827 96.3074 137.867C95.6551 137.907 95.0431 137.833 94.4648 137.645C93.8865 137.457 93.362 137.154 92.8912 136.731C92.4205 136.314 92.0238 135.776 91.701 135.124L91.6942 135.117Z" fill="#231F20"/>
<path d="M75.6895 136.428C75.5147 135.137 75.6156 134.021 75.9922 133.066C76.3687 132.111 76.9538 131.351 77.7473 130.78C78.5341 130.208 79.4554 129.852 80.5044 129.71C81.5602 129.569 82.542 129.663 83.4565 130.006C84.3711 130.349 85.1377 130.927 85.7564 131.741C86.375 132.555 86.7785 133.604 86.9534 134.888C87.1282 136.179 87.0273 137.296 86.6507 138.25C86.2742 139.205 85.6891 139.965 84.9023 140.537C84.1155 141.108 83.1943 141.465 82.1385 141.613C81.0894 141.754 80.1076 141.66 79.1931 141.323C78.2785 140.987 77.5119 140.409 76.8865 139.595C76.2611 138.782 75.8644 137.726 75.6895 136.442V136.428ZM78.9241 135.984C79.0183 136.677 79.1931 137.248 79.4419 137.706C79.6907 138.156 80.0068 138.486 80.3968 138.681C80.7868 138.876 81.2441 138.943 81.7619 138.869C82.2797 138.795 82.7034 138.614 83.0262 138.318C83.3489 138.022 83.5709 137.625 83.6852 137.121C83.7995 136.616 83.8129 136.018 83.7188 135.325C83.6246 134.633 83.4498 134.061 83.201 133.604C82.9522 133.147 82.6361 132.824 82.2461 132.629C81.8561 132.434 81.3988 132.366 80.881 132.44C80.3632 132.514 79.9395 132.696 79.6167 132.992C79.294 133.288 79.072 133.684 78.9577 134.189C78.8367 134.693 78.83 135.292 78.9241 135.984Z" fill="#231F20"/>
<path d="M70.2157 142.379L66.2952 141.875L64.4459 134.962L64.3114 134.942L60.7742 141.162L56.8538 140.658L58.3399 129.065L61.4198 129.462L60.559 136.166L60.6465 136.179L64.076 129.899L65.9321 130.134L67.6603 137.121L67.7477 137.134L68.6152 130.383L71.6951 130.78L70.2089 142.372L70.2157 142.379Z" fill="#231F20"/>
<path d="M55.4147 128.049L51.1983 138.956L46.491 137.134C45.6841 136.825 45.0318 136.388 44.5543 135.836C44.0702 135.285 43.7743 134.653 43.66 133.94C43.5456 133.234 43.6398 132.488 43.9357 131.714C44.2383 130.934 44.6686 130.322 45.2402 129.885C45.8051 129.448 46.4641 129.193 47.2039 129.125C47.9436 129.058 48.7303 129.186 49.5642 129.502L52.3751 130.591L51.4875 132.891L49.275 132.037C48.9254 131.903 48.6026 131.849 48.3134 131.876C48.0175 131.903 47.762 132.003 47.5401 132.178C47.3182 132.353 47.1501 132.595 47.029 132.904C46.908 133.214 46.8743 133.51 46.9214 133.785C46.9685 134.061 47.0895 134.303 47.2913 134.518C47.493 134.733 47.7687 134.908 48.1117 135.043L49.154 135.446L52.4558 126.906L55.4147 128.049Z" fill="#231F20"/>
<path d="M43.1892 122.683L46.0876 124.506L36.5991 132.346L32.9274 130.04L35.8863 118.091L38.7846 119.913L36.4377 128.446L36.5184 128.493L43.1892 122.683ZM41.2727 126.926L35.819 123.497L37.0832 121.486L42.5302 124.916L41.266 126.926H41.2727Z" fill="#231F20"/>
<path d="M18.4694 117.344L26.8012 109.147L28.6572 111.037L27.245 118.353L27.2921 118.4L31.6699 114.089L33.8957 116.349L25.5639 124.546L23.6743 122.63L25.1201 115.374L25.0528 115.307L20.6952 119.597L18.4694 117.337V117.344Z" fill="#231F20"/>
<path d="M15.2146 113.33L13.3654 110.31L16.2233 105.886L16.1763 105.805L10.9378 106.336L9.08847 103.317L18.1668 102.792L21.3005 100.869L22.948 103.552L19.8143 105.475L15.2214 113.323L15.2146 113.33Z" fill="#231F20"/>
<path d="M9.52839 75.2462L10.8242 82.0256L17.6722 82.8883L11.625 86.2156L12.9208 92.995L7.88761 88.272L1.8404 91.5993L4.77695 85.353L-0.256198 80.6299L6.59184 81.4925L9.52839 75.2462Z" fill="#EA19E2"/>
</g>
<defs>
<clipPath id="clip0_126_46">
<rect width="143" height="142" fill="white" transform="translate(0.312775 0.379181)"/>
</clipPath>
</defs>
</svg>
